<?xml version="1.0" encoding="UTF-8" standalone="no"?>
<!-- Created with Inkscape (http://www.inkscape.org/) -->

<svg
   xmlns:dc="http://purl.org/dc/elements/1.1/"
   xmlns:cc="http://creativecommons.org/ns#"
   xmlns:rdf="http://www.w3.org/1999/02/22-rdf-syntax-ns#"
   xmlns:svg="http://www.w3.org/2000/svg"
   xmlns="http://www.w3.org/2000/svg"
   xmlns:sodipodi="http://sodipodi.sourceforge.net/DTD/sodipodi-0.dtd"
   xmlns:inkscape="http://www.inkscape.org/namespaces/inkscape"
   width="210mm"
   height="297mm"
   viewBox="0 0 744.09448819 1052.3622047"
   id="svg2"
   version="1.1"
   inkscape:version="0.91 r13725"
   sodipodi:docname="drawing.svg">
  <defs
     id="defs4" />
  <sodipodi:namedview
     id="base"
     pagecolor="#ffffff"
     bordercolor="#666666"
     borderopacity="1.0"
     inkscape:pageopacity="0.0"
     inkscape:pageshadow="2"
     inkscape:zoom="0.98994949"
     inkscape:cx="243.46369"
     inkscape:cy="664.44662"
     inkscape:document-units="px"
     inkscape:current-layer="layer1"
     showgrid="false"
     inkscape:window-width="1366"
     inkscape:window-height="713"
     inkscape:window-x="0"
     inkscape:window-y="27"
     inkscape:window-maximized="1" />
  <metadata
     id="metadata7">
    <rdf:RDF>
      <cc:Work
         rdf:about="">
        <dc:format>image/svg+xml</dc:format>
        <dc:type
           rdf:resource="http://purl.org/dc/dcmitype/StillImage" />
      </cc:Work>
    </rdf:RDF>
  </metadata>
  <g
     inkscape:label="Layer 1"
     inkscape:groupmode="layer"
     id="layer1">
    <rect
       style="color:#000000;clip-rule:nonzero;display:inline;overflow:visible;visibility:visible;opacity:1;isolation:auto;mix-blend-mode:normal;color-interpolation:sRGB;color-interpolation-filters:linearRGB;solid-color:#000000;solid-opacity:1;fill:#000000;fill-opacity:1;fill-rule:nonzero;stroke:none;stroke-width:5;stroke-linecap:butt;stroke-linejoin:miter;stroke-miterlimit:4;stroke-dasharray:none;stroke-dashoffset:0;stroke-opacity:1;color-rendering:auto;image-rendering:auto;shape-rendering:auto;text-rendering:auto;enable-background:accumulate"
       id="rect4304"
       width="566.42859"
       height="82.85714"
       x="10.714286"
       y="189.64792" />
    <text
       xml:space="preserve"
       style="font-style:normal;font-variant:normal;font-weight:normal;font-stretch:normal;font-size:25px;line-height:125%;font-family:Monospace;-inkscape-font-specification:Monospace;letter-spacing:0px;word-spacing:0px;fill:#000000;fill-opacity:1;stroke:none;stroke-width:1px;stroke-linecap:butt;stroke-linejoin:miter;stroke-opacity:1"
       x="20.000002"
       y="76.647926"
       id="text4136"
       sodipodi:linespacing="125%"><tspan
         sodipodi:role="line"
         id="tspan4138"
         x="20.000002"
         y="76.647926"
         style="font-style:normal;font-variant:normal;font-weight:300;font-stretch:normal;font-size:62.5px;font-family:Ubuntu;-inkscape-font-specification:'Ubuntu Light'">toko<tspan
   style="font-weight:bold"
   id="tspan4158">bangunan</tspan>.com</tspan></text>
    <g
       id="g4252">
      <path
         d="m 29.187502,120.33542 12.875,0 0,3.4375 -12.875,0 0,17.1875 q 0,2.75 0.4375,4.5 0.5,1.6875 1.375,2.625 0.875,0.9375 2.125,1.25 1.25,0.3125 2.75,0.3125 2.5625,0 4.125,-0.5625 1.5625,-0.625 2.4375,-1.125 l 1,3.375 q -0.875,0.5625 -3.0625,1.3125 -2.1875,0.6875 -4.75,0.6875 -3,0 -5.0625,-0.75 -2,-0.8125 -3.25,-2.375 -1.1875,-1.625 -1.6875,-4 -0.5,-2.375 -0.5,-5.625 l 0,-29.75 4.0625,-0.75 0,10.25 z"
         style="font-style:normal;font-variant:normal;font-weight:300;font-stretch:normal;font-size:62.5px;line-height:125%;font-family:Ubuntu;-inkscape-font-specification:'Ubuntu Light';letter-spacing:0px;word-spacing:0px;fill:#000000;fill-opacity:1;stroke:none;stroke-width:1px;stroke-linecap:butt;stroke-linejoin:miter;stroke-opacity:1"
         id="path4192"
         inkscape:connector-curvature="0" />
      <path
         id="path4242"
         d="m 77.107424,136.52292 q 0,3.8125 -1.125,6.9375 -1.0625,3.125 -3.0625,5.3125 -1.9375,2.1875 -4.625,3.4375 -2.6875,1.1875 -5.9375,1.1875 -3.25,0 -5.9375,-1.1875 -2.6875,-1.25 -4.6875,-3.4375 -1.9375,-2.1875 -3.0625,-5.3125 -1.0625,-3.125 -1.0625,-6.9375 0,-3.8125 1.0625,-6.9375 1.125,-3.125 3.0625,-5.3125 2,-2.25 4.6875,-3.4375 2.6875,-1.25 5.9375,-1.25 3.25,0 5.9375,1.25 2.6875,1.1875 4.625,3.4375 2,2.1875 3.0625,5.3125 1.125,3.125 1.125,6.9375 z"
         style="font-style:normal;font-variant:normal;font-weight:300;font-stretch:normal;font-size:62.5px;line-height:125%;font-family:Ubuntu;-inkscape-font-specification:'Ubuntu Light';letter-spacing:0px;word-spacing:0px;fill:#ffc107;fill-opacity:1;stroke:none;stroke-width:1px;stroke-linecap:butt;stroke-linejoin:miter;stroke-opacity:1" />
      <path
         d="m 94.546877,135.08542 q 1.9375,1.3125 4.125,3.375 2.250003,2.0625 4.375003,4.5 2.1875,2.375 4.0625,4.9375 1.9375,2.5 3.25,4.75 l -4.8125,0 q -1.5,-2.5 -3.4375,-4.875 -1.875,-2.4375 -4.000003,-4.5625 -2.0625,-2.125 -4.1875,-3.875 -2.0625,-1.75 -3.9375,-2.9375 l 0,16.25 -4.0625,0 0,-47.75 4.0625,-0.75 0,30.75 q 1.5625,-1.5 3.5,-3.4375 1.9375,-1.9375 3.875,-3.9375 2,-2 3.750003,-3.875 1.75,-1.875 3,-3.3125 l 4.875,0 q -1.4375,1.5 -3.25,3.375 -1.8125,1.875 -3.8125,3.9375 -1.937503,2 -3.875003,3.9375 -1.9375,1.9375 -3.5,3.5 z"
         style="font-style:normal;font-variant:normal;font-weight:300;font-stretch:normal;font-size:62.5px;line-height:125%;font-family:Ubuntu;-inkscape-font-specification:'Ubuntu Light';letter-spacing:0px;word-spacing:0px;fill:#000000;fill-opacity:1;stroke:none;stroke-width:1px;stroke-linecap:butt;stroke-linejoin:miter;stroke-opacity:1"
         id="path4196"
         inkscape:connector-curvature="0" />
      <path
         id="path4246"
         d="m 143.26953,136.52292 q 0,3.8125 -1.125,6.9375 -1.0625,3.125 -3.0625,5.3125 -1.9375,2.1875 -4.625,3.4375 -2.6875,1.1875 -5.9375,1.1875 -3.25,0 -5.9375,-1.1875 -2.6875,-1.25 -4.6875,-3.4375 -1.9375,-2.1875 -3.0625,-5.3125 -1.0625,-3.125 -1.0625,-6.9375 0,-3.8125 1.0625,-6.9375 1.125,-3.125 3.0625,-5.3125 2,-2.25 4.6875,-3.4375 2.6875,-1.25 5.9375,-1.25 3.25,0 5.9375,1.25 2.6875,1.1875 4.625,3.4375 2,2.1875 3.0625,5.3125 1.125,3.125 1.125,6.9375 z"
         style="font-style:normal;font-variant:normal;font-weight:300;font-stretch:normal;font-size:62.5px;line-height:125%;font-family:Ubuntu;-inkscape-font-specification:'Ubuntu Light';letter-spacing:0px;word-spacing:0px;fill:#ffc107;fill-opacity:1;stroke:none;stroke-width:1px;stroke-linecap:butt;stroke-linejoin:miter;stroke-opacity:1" />
      <path
         d="m 172.14649,135.96042 q 0,-9 -6.625,-9 -1.4375,0 -2.875,0.375 -1.375,0.375 -2.25,0.9375 l 0,16.9375 q 0.6875,0.125 1.75,0.25 1.0625,0.0625 2.3125,0.0625 3.8125,0 5.75,-2.625 1.9375,-2.625 1.9375,-6.9375 z m 9.5,0.25 q 0,3.9375 -1.1875,7.125 -1.125,3.1875 -3.3125,5.4375 -2.1875,2.25 -5.375,3.5 -3.1875,1.1875 -7.25,1.1875 -1.6875,0 -3.5625,-0.1875 -1.8125,-0.125 -3.625,-0.375 -1.75,-0.25 -3.375,-0.5625 -1.625,-0.375 -2.875,-0.75 l 0,-45.9375 9.3125,-1.5 0,16.375 q 1.5625,-0.6875 3.25,-1.0625 1.6875,-0.375 3.625,-0.375 3.5,0 6.1875,1.25 2.6875,1.1875 4.5,3.4375 1.8125,2.25 2.75,5.4375 0.9375,3.125 0.9375,7 z"
         style="font-style:normal;font-variant:normal;font-weight:bold;font-stretch:normal;font-size:medium;line-height:125%;font-family:Monospace;-inkscape-font-specification:Monospace;letter-spacing:0px;word-spacing:0px;fill:#000000;fill-opacity:1;stroke:none;stroke-width:1px;stroke-linecap:butt;stroke-linejoin:miter;stroke-opacity:1"
         id="path4200"
         inkscape:connector-curvature="0" />
      <path
         d="m 201.36621,146.14792 q 1.375,0 2.625,-0.0625 1.25,-0.0625 2,-0.1875 l 0,-7.0625 q -0.5625,-0.125 -1.6875,-0.25 -1.125,-0.125 -2.0625,-0.125 -1.3125,0 -2.5,0.1875 -1.125,0.125 -2,0.5625 -0.875,0.4375 -1.375,1.1875 -0.5,0.75 -0.5,1.875 0,2.1875 1.4375,3.0625 1.5,0.8125 4.0625,0.8125 z m -0.75,-27.25 q 4.125,0 6.875,0.9375 2.75,0.9375 4.375,2.6875 1.6875,1.75 2.375,4.25 0.6875,2.5 0.6875,5.5625 l 0,19.375 q -2,0.4375 -5.5625,1 -3.5625,0.625 -8.625,0.625 -3.1875,0 -5.8125,-0.5625 -2.5625,-0.5625 -4.4375,-1.8125 -1.875,-1.3125 -2.875,-3.375 -1,-2.0625 -1,-5.0625 0,-2.875 1.125,-4.875 1.1875,-2 3.125,-3.1875 1.9375,-1.1875 4.4375,-1.6875 2.5,-0.5625 5.1875,-0.5625 1.8125,0 3.1875,0.1875 1.4375,0.125 2.3125,0.375 l 0,-0.875 q 0,-2.375 -1.4375,-3.8125 -1.4375,-1.4375 -5,-1.4375 -2.375,0 -4.6875,0.375 -2.3125,0.3125 -4,0.9375 l -1.1875,-7.5 q 0.8125,-0.25 2,-0.5 1.25,-0.3125 2.6875,-0.5 1.4375,-0.25 3,-0.375 1.625,-0.1875 3.25,-0.1875 z"
         style="font-style:normal;font-variant:normal;font-weight:bold;font-stretch:normal;font-size:medium;line-height:125%;font-family:Monospace;-inkscape-font-specification:Monospace;letter-spacing:0px;word-spacing:0px;fill:#000000;fill-opacity:1;stroke:none;stroke-width:1px;stroke-linecap:butt;stroke-linejoin:miter;stroke-opacity:1"
         id="path4202"
         inkscape:connector-curvature="0" />
      <path
         d="m 223.34961,120.89792 q 2.375,-0.6875 6.125,-1.25 3.75,-0.625 7.875,-0.625 4.1875,0 6.9375,1.125 2.8125,1.0625 4.4375,3.0625 1.625,2 2.3125,4.75 0.6875,2.75 0.6875,6.125 l 0,18.5625 -9.3125,0 0,-17.4375 q 0,-4.5 -1.1875,-6.375 -1.1875,-1.875 -4.4375,-1.875 -1,0 -2.125,0.125 -1.125,0.0625 -2,0.1875 l 0,25.375 -9.3125,0 0,-31.75 z"
         style="font-style:normal;font-variant:normal;font-weight:bold;font-stretch:normal;font-size:medium;line-height:125%;font-family:Monospace;-inkscape-font-specification:Monospace;letter-spacing:0px;word-spacing:0px;fill:#000000;fill-opacity:1;stroke:none;stroke-width:1px;stroke-linecap:butt;stroke-linejoin:miter;stroke-opacity:1"
         id="path4204"
         inkscape:connector-curvature="0" />
      <path
         d="m 268.15235,135.14792 q 0,7.8125 6.3125,7.8125 1.4375,0 2.6875,-0.375 1.25,-0.375 2.125,-0.875 l 0,-14.875 q -0.6875,-0.125 -1.625,-0.1875 -0.9375,-0.125 -2.1875,-0.125 -3.6875,0 -5.5,2.4375 -1.8125,2.4375 -1.8125,6.1875 z m 20.4375,13.375 q 0,8.0625 -4.125,11.9375 -4.0625,3.9375 -12.625,3.9375 -3,0 -6,-0.5625 -3,-0.5 -5.5625,-1.375 l 1.625,-7.8125 q 2.1875,0.875 4.5625,1.375 2.4375,0.5 5.5,0.5 4,0 5.625,-1.75 1.6875,-1.75 1.6875,-4.5 l 0,-1.1875 q -1.5,0.6875 -3.125,1.0625 -1.5625,0.3125 -3.4375,0.3125 -6.8125,0 -10.4375,-4 -3.625,-4.0625 -3.625,-11.3125 0,-3.625 1.125,-6.5625 1.125,-3 3.25,-5.125 2.1875,-2.125 5.3125,-3.25 3.125,-1.1875 7.0625,-1.1875 1.6875,0 3.4375,0.1875 1.8125,0.125 3.5625,0.375 1.75,0.25 3.3125,0.625 1.625,0.3125 2.875,0.6875 l 0,27.625 z"
         style="font-style:normal;font-variant:normal;font-weight:bold;font-stretch:normal;font-size:medium;line-height:125%;font-family:Monospace;-inkscape-font-specification:Monospace;letter-spacing:0px;word-spacing:0px;fill:#000000;fill-opacity:1;stroke:none;stroke-width:1px;stroke-linecap:butt;stroke-linejoin:miter;stroke-opacity:1"
         id="path4206"
         inkscape:connector-curvature="0" />
      <path
         d="m 325.38672,151.52292 q -2.375,0.6875 -6.125,1.25 -3.75,0.625 -7.875,0.625 -4.1875,0 -7,-1.125 -2.75,-1.125 -4.375,-3.125 -1.625,-2.0625 -2.3125,-4.875 -0.6875,-2.8125 -0.6875,-6.1875 l 0,-18.3125 9.3125,0 0,17.1875 q 0,4.5 1.1875,6.5 1.1875,2 4.4375,2 1,0 2.125,-0.0625 1.125,-0.125 2,-0.25 l 0,-25.375 9.3125,0 0,31.75 z"
         style="font-style:normal;font-variant:normal;font-weight:bold;font-stretch:normal;font-size:medium;line-height:125%;font-family:Monospace;-inkscape-font-specification:Monospace;letter-spacing:0px;word-spacing:0px;fill:#000000;fill-opacity:1;stroke:none;stroke-width:1px;stroke-linecap:butt;stroke-linejoin:miter;stroke-opacity:1"
         id="path4208"
         inkscape:connector-curvature="0" />
      <path
         d="m 334.18946,120.89792 q 2.375,-0.6875 6.125,-1.25 3.75,-0.625 7.875,-0.625 4.1875,0 6.9375,1.125 2.8125,1.0625 4.4375,3.0625 1.625,2 2.3125,4.75 0.6875,2.75 0.6875,6.125 l 0,18.5625 -9.3125,0 0,-17.4375 q 0,-4.5 -1.1875,-6.375 -1.1875,-1.875 -4.4375,-1.875 -1,0 -2.125,0.125 -1.125,0.0625 -2,0.1875 l 0,25.375 -9.3125,0 0,-31.75 z"
         style="font-style:normal;font-variant:normal;font-weight:bold;font-stretch:normal;font-size:medium;line-height:125%;font-family:Monospace;-inkscape-font-specification:Monospace;letter-spacing:0px;word-spacing:0px;fill:#000000;fill-opacity:1;stroke:none;stroke-width:1px;stroke-linecap:butt;stroke-linejoin:miter;stroke-opacity:1"
         id="path4210"
         inkscape:connector-curvature="0" />
      <path
         d="m 383.61719,146.14792 q 1.375,0 2.625,-0.0625 1.25,-0.0625 2,-0.1875 l 0,-7.0625 q -0.5625,-0.125 -1.6875,-0.25 -1.125,-0.125 -2.0625,-0.125 -1.3125,0 -2.5,0.1875 -1.125,0.125 -2,0.5625 -0.875,0.4375 -1.375,1.1875 -0.5,0.75 -0.5,1.875 0,2.1875 1.4375,3.0625 1.5,0.8125 4.0625,0.8125 z m -0.75,-27.25 q 4.125,0 6.875,0.9375 2.75,0.9375 4.375,2.6875 1.6875,1.75 2.375,4.25 0.6875,2.5 0.6875,5.5625 l 0,19.375 q -2,0.4375 -5.5625,1 -3.5625,0.625 -8.625,0.625 -3.1875,0 -5.8125,-0.5625 -2.5625,-0.5625 -4.4375,-1.8125 -1.875,-1.3125 -2.875,-3.375 -1,-2.0625 -1,-5.0625 0,-2.875 1.125,-4.875 1.1875,-2 3.125,-3.1875 1.9375,-1.1875 4.4375,-1.6875 2.5,-0.5625 5.1875,-0.5625 1.8125,0 3.1875,0.1875 1.4375,0.125 2.3125,0.375 l 0,-0.875 q 0,-2.375 -1.4375,-3.8125 -1.4375,-1.4375 -5,-1.4375 -2.375,0 -4.6875,0.375 -2.3125,0.3125 -4,0.9375 l -1.1875,-7.5 q 0.8125,-0.25 2,-0.5 1.25,-0.3125 2.6875,-0.5 1.4375,-0.25 3,-0.375 1.625,-0.1875 3.25,-0.1875 z"
         style="font-style:normal;font-variant:normal;font-weight:bold;font-stretch:normal;font-size:medium;line-height:125%;font-family:Monospace;-inkscape-font-specification:Monospace;letter-spacing:0px;word-spacing:0px;fill:#000000;fill-opacity:1;stroke:none;stroke-width:1px;stroke-linecap:butt;stroke-linejoin:miter;stroke-opacity:1"
         id="path4212"
         inkscape:connector-curvature="0" />
      <path
         d="m 405.60059,120.89792 q 2.375,-0.6875 6.125,-1.25 3.75,-0.625 7.875,-0.625 4.1875,0 6.9375,1.125 2.8125,1.0625 4.4375,3.0625 1.625,2 2.3125,4.75 0.6875,2.75 0.6875,6.125 l 0,18.5625 -9.3125,0 0,-17.4375 q 0,-4.5 -1.1875,-6.375 -1.1875,-1.875 -4.4375,-1.875 -1,0 -2.125,0.125 -1.125,0.0625 -2,0.1875 l 0,25.375 -9.3125,0 0,-31.75 z"
         style="font-style:normal;font-variant:normal;font-weight:bold;font-stretch:normal;font-size:medium;line-height:125%;font-family:Monospace;-inkscape-font-specification:Monospace;letter-spacing:0px;word-spacing:0px;fill:#000000;fill-opacity:1;stroke:none;stroke-width:1px;stroke-linecap:butt;stroke-linejoin:miter;stroke-opacity:1"
         id="path4214"
         inkscape:connector-curvature="0" />
      <path
         d="m 449.21582,149.96042 q 0,1.4375 -0.9375,2.4375 -0.875,1 -2.5,1 -1.625,0 -2.5625,-1 -0.875,-1 -0.875,-2.4375 0,-1.4375 0.875,-2.4375 0.9375,-1 2.5625,-1 1.625,0 2.5,1 0.9375,1 0.9375,2.4375 z"
         style="font-style:normal;font-variant:normal;font-weight:300;font-stretch:normal;font-size:62.5px;line-height:125%;font-family:Ubuntu;-inkscape-font-specification:'Ubuntu Light';letter-spacing:0px;word-spacing:0px;fill:#ffc107;fill-opacity:1;stroke:none;stroke-width:1px;stroke-linecap:butt;stroke-linejoin:miter;stroke-opacity:1"
         id="path4216"
         inkscape:connector-curvature="0" />
      <path
         d="m 472.22168,153.33542 q -3.75,0 -6.625,-1.1875 -2.875,-1.1875 -4.8125,-3.375 -1.875,-2.25 -2.875,-5.3125 -1,-3.125 -1,-6.875 0,-3.8125 1,-6.9375 1.0625,-3.125 3,-5.375 1.9375,-2.25 4.6875,-3.4375 2.75,-1.25 6.1875,-1.25 2.625,0 4.875,0.4375 2.3125,0.4375 3.5625,1.125 l -1.0625,3.5 q -1.25,-0.625 -2.8125,-1 -1.5625,-0.375 -4.1875,-0.375 -5.375,0 -8.1875,3.5 -2.75,3.4375 -2.75,9.8125 0,2.875 0.625,5.3125 0.625,2.375 2,4.125 1.4375,1.6875 3.625,2.6875 2.25,0.9375 5.4375,0.9375 2.625,0 4.375,-0.5625 1.8125,-0.625 2.625,-1.0625 l 0.875,3.5 q -1.125,0.625 -3.5625,1.1875 -2.375,0.625 -5,0.625 z"
         style="font-style:normal;font-variant:normal;font-weight:300;font-stretch:normal;font-size:62.5px;line-height:125%;font-family:Ubuntu;-inkscape-font-specification:'Ubuntu Light';letter-spacing:0px;word-spacing:0px;fill:#000000;fill-opacity:1;stroke:none;stroke-width:1px;stroke-linecap:butt;stroke-linejoin:miter;stroke-opacity:1"
         id="path4218"
         inkscape:connector-curvature="0" />
      <path
         id="path4250"
         d="m 515.21778,136.52292 q 0,3.8125 -1.125,6.9375 -1.0625,3.125 -3.0625,5.3125 -1.9375,2.1875 -4.625,3.4375 -2.6875,1.1875 -5.9375,1.1875 -3.25,0 -5.9375,-1.1875 -2.6875,-1.25 -4.6875,-3.4375 -1.9375,-2.1875 -3.0625,-5.3125 -1.0625,-3.125 -1.0625,-6.9375 0,-3.8125 1.0625,-6.9375 1.125,-3.125 3.0625,-5.3125 2,-2.25 4.6875,-3.4375 2.6875,-1.25 5.9375,-1.25 3.25,0 5.9375,1.25 2.6875,1.1875 4.625,3.4375 2,2.1875 3.0625,5.3125 1.125,3.125 1.125,6.9375 z"
         style="font-style:normal;font-variant:normal;font-weight:300;font-stretch:normal;font-size:62.5px;line-height:125%;font-family:Ubuntu;-inkscape-font-specification:'Ubuntu Light';letter-spacing:0px;word-spacing:0px;fill:#ffc107;fill-opacity:1;stroke:none;stroke-width:1px;stroke-linecap:butt;stroke-linejoin:miter;stroke-opacity:1" />
      <path
         d="m 524.03223,121.46042 q 1.8125,-0.5 4.6875,-1.125 2.9375,-0.625 7.5625,-0.625 6.125,0 8.875,3.5625 0.3125,-0.25 1.1875,-0.8125 0.9375,-0.625 2.3125,-1.25 1.375,-0.625 3.1875,-1.0625 1.875,-0.4375 4.125,-0.4375 3.6875,0 5.9375,1.125 2.3125,1.0625 3.5625,3.0625 1.25,1.9375 1.6875,4.6875 0.4375,2.75 0.4375,6 l 0,18.0625 -4.0625,0 0,-16.75 q 0,-3.1875 -0.3125,-5.5 -0.25,-2.375 -1.125,-3.875 -0.8125,-1.5625 -2.375,-2.3125 -1.5625,-0.8125 -4.0625,-0.8125 -1.875,0 -3.4375,0.375 -1.5,0.3125 -2.625,0.8125 -1.125,0.5 -1.875,1 -0.6875,0.5 -1,0.75 0.5625,1.625 0.8125,3.6875 0.3125,2 0.3125,4.25 l 0,18.375 -4.0625,0 0,-16.75 q 0,-3.1875 -0.3125,-5.5 -0.25,-2.375 -1.125,-3.875 -0.875,-1.5625 -2.5,-2.3125 -1.5625,-0.8125 -4.1875,-0.8125 -2.9375,0 -5,0.3125 -2,0.3125 -2.5625,0.5625 l 0,28.375 -4.0625,0 0,-31.1875 z"
         style="font-style:normal;font-variant:normal;font-weight:300;font-stretch:normal;font-size:62.5px;line-height:125%;font-family:Ubuntu;-inkscape-font-specification:'Ubuntu Light';letter-spacing:0px;word-spacing:0px;fill:#000000;fill-opacity:1;stroke:none;stroke-width:1px;stroke-linecap:butt;stroke-linejoin:miter;stroke-opacity:1"
         id="path4222"
         inkscape:connector-curvature="0" />
    </g>
    <g
       id="g4322"
       inkscape:export-xdpi="89.626556"
       inkscape:export-ydpi="89.626556">
      <path
         inkscape:connector-curvature="0"
         id="path4272"
         style="font-style:normal;font-variant:normal;font-weight:300;font-stretch:normal;font-size:62.5px;line-height:125%;font-family:Ubuntu;-inkscape-font-specification:'Ubuntu Light';letter-spacing:0px;word-spacing:0px;fill:#ffffff;fill-opacity:1;stroke:none;stroke-width:1px;stroke-linecap:butt;stroke-linejoin:miter;stroke-opacity:1"
         d="m 29.187502,218.33542 12.875,0 0,3.4375 -12.875,0 0,17.1875 q 0,2.75 0.4375,4.5 0.5,1.6875 1.375,2.625 0.875,0.9375 2.125,1.25 1.25,0.3125 2.75,0.3125 2.5625,0 4.125,-0.5625 1.5625,-0.625 2.4375,-1.125 l 1,3.375 q -0.875,0.5625 -3.0625,1.3125 -2.1875,0.6875 -4.75,0.6875 -3,0 -5.0625,-0.75 -2,-0.8125 -3.25,-2.375 -1.1875,-1.625 -1.6875,-4 -0.5,-2.375 -0.5,-5.625 l 0,-29.75 4.0625,-0.75 0,10.25 z" />
      <path
         style="font-style:normal;font-variant:normal;font-weight:300;font-stretch:normal;font-size:62.5px;line-height:125%;font-family:Ubuntu;-inkscape-font-specification:'Ubuntu Light';letter-spacing:0px;word-spacing:0px;fill:#ffc107;fill-opacity:1;stroke:none;stroke-width:1px;stroke-linecap:butt;stroke-linejoin:miter;stroke-opacity:1"
         d="m 77.107424,234.52292 q 0,3.8125 -1.125,6.9375 -1.0625,3.125 -3.0625,5.3125 -1.9375,2.1875 -4.625,3.4375 -2.6875,1.1875 -5.9375,1.1875 -3.25,0 -5.9375,-1.1875 -2.6875,-1.25 -4.6875,-3.4375 -1.9375,-2.1875 -3.0625,-5.3125 -1.0625,-3.125 -1.0625,-6.9375 0,-3.8125 1.0625,-6.9375 1.125,-3.125 3.0625,-5.3125 2,-2.25 4.6875,-3.4375 2.6875,-1.25 5.9375,-1.25 3.25,0 5.9375,1.25 2.6875,1.1875 4.625,3.4375 2,2.1875 3.0625,5.3125 1.125,3.125 1.125,6.9375 z"
         id="path4274"
         inkscape:connector-curvature="0" />
      <path
         inkscape:connector-curvature="0"
         id="path4276"
         style="font-style:normal;font-variant:normal;font-weight:300;font-stretch:normal;font-size:62.5px;line-height:125%;font-family:Ubuntu;-inkscape-font-specification:'Ubuntu Light';letter-spacing:0px;word-spacing:0px;fill:#ffffff;fill-opacity:1;stroke:none;stroke-width:1px;stroke-linecap:butt;stroke-linejoin:miter;stroke-opacity:1"
         d="m 94.546877,233.08542 q 1.9375,1.3125 4.125,3.375 2.250003,2.0625 4.375003,4.5 2.1875,2.375 4.0625,4.9375 1.9375,2.5 3.25,4.75 l -4.8125,0 q -1.5,-2.5 -3.4375,-4.875 -1.875,-2.4375 -4.000003,-4.5625 -2.0625,-2.125 -4.1875,-3.875 -2.0625,-1.75 -3.9375,-2.9375 l 0,16.25 -4.0625,0 0,-47.75 4.0625,-0.75 0,30.75 q 1.5625,-1.5 3.5,-3.4375 1.9375,-1.9375 3.875,-3.9375 2,-2 3.750003,-3.875 1.75,-1.875 3,-3.3125 l 4.875,0 q -1.4375,1.5 -3.25,3.375 -1.8125,1.875 -3.8125,3.9375 -1.937503,2 -3.875003,3.9375 -1.9375,1.9375 -3.5,3.5 z" />
      <path
         style="font-style:normal;font-variant:normal;font-weight:300;font-stretch:normal;font-size:62.5px;line-height:125%;font-family:Ubuntu;-inkscape-font-specification:'Ubuntu Light';letter-spacing:0px;word-spacing:0px;fill:#ffc107;fill-opacity:1;stroke:none;stroke-width:1px;stroke-linecap:butt;stroke-linejoin:miter;stroke-opacity:1"
         d="m 143.26953,234.52292 q 0,3.8125 -1.125,6.9375 -1.0625,3.125 -3.0625,5.3125 -1.9375,2.1875 -4.625,3.4375 -2.6875,1.1875 -5.9375,1.1875 -3.25,0 -5.9375,-1.1875 -2.6875,-1.25 -4.6875,-3.4375 -1.9375,-2.1875 -3.0625,-5.3125 -1.0625,-3.125 -1.0625,-6.9375 0,-3.8125 1.0625,-6.9375 1.125,-3.125 3.0625,-5.3125 2,-2.25 4.6875,-3.4375 2.6875,-1.25 5.9375,-1.25 3.25,0 5.9375,1.25 2.6875,1.1875 4.625,3.4375 2,2.1875 3.0625,5.3125 1.125,3.125 1.125,6.9375 z"
         id="path4278"
         inkscape:connector-curvature="0" />
      <path
         inkscape:connector-curvature="0"
         id="path4280"
         style="font-style:normal;font-variant:normal;font-weight:bold;font-stretch:normal;font-size:medium;line-height:125%;font-family:Monospace;-inkscape-font-specification:Monospace;letter-spacing:0px;word-spacing:0px;fill:#ffffff;fill-opacity:1;stroke:none;stroke-width:1px;stroke-linecap:butt;stroke-linejoin:miter;stroke-opacity:1"
         d="m 172.14649,233.96042 q 0,-9 -6.625,-9 -1.4375,0 -2.875,0.375 -1.375,0.375 -2.25,0.9375 l 0,16.9375 q 0.6875,0.125 1.75,0.25 1.0625,0.0625 2.3125,0.0625 3.8125,0 5.75,-2.625 1.9375,-2.625 1.9375,-6.9375 z m 9.5,0.25 q 0,3.9375 -1.1875,7.125 -1.125,3.1875 -3.3125,5.4375 -2.1875,2.25 -5.375,3.5 -3.1875,1.1875 -7.25,1.1875 -1.6875,0 -3.5625,-0.1875 -1.8125,-0.125 -3.625,-0.375 -1.75,-0.25 -3.375,-0.5625 -1.625,-0.375 -2.875,-0.75 l 0,-45.9375 9.3125,-1.5 0,16.375 q 1.5625,-0.6875 3.25,-1.0625 1.6875,-0.375 3.625,-0.375 3.5,0 6.1875,1.25 2.6875,1.1875 4.5,3.4375 1.8125,2.25 2.75,5.4375 0.9375,3.125 0.9375,7 z" />
      <path
         inkscape:connector-curvature="0"
         id="path4282"
         style="font-style:normal;font-variant:normal;font-weight:bold;font-stretch:normal;font-size:medium;line-height:125%;font-family:Monospace;-inkscape-font-specification:Monospace;letter-spacing:0px;word-spacing:0px;fill:#ffffff;fill-opacity:1;stroke:none;stroke-width:1px;stroke-linecap:butt;stroke-linejoin:miter;stroke-opacity:1"
         d="m 201.36621,244.14792 q 1.375,0 2.625,-0.0625 1.25,-0.0625 2,-0.1875 l 0,-7.0625 q -0.5625,-0.125 -1.6875,-0.25 -1.125,-0.125 -2.0625,-0.125 -1.3125,0 -2.5,0.1875 -1.125,0.125 -2,0.5625 -0.875,0.4375 -1.375,1.1875 -0.5,0.75 -0.5,1.875 0,2.1875 1.4375,3.0625 1.5,0.8125 4.0625,0.8125 z m -0.75,-27.25 q 4.125,0 6.875,0.9375 2.75,0.9375 4.375,2.6875 1.6875,1.75 2.375,4.25 0.6875,2.5 0.6875,5.5625 l 0,19.375 q -2,0.4375 -5.5625,1 -3.5625,0.625 -8.625,0.625 -3.1875,0 -5.8125,-0.5625 -2.5625,-0.5625 -4.4375,-1.8125 -1.875,-1.3125 -2.875,-3.375 -1,-2.0625 -1,-5.0625 0,-2.875 1.125,-4.875 1.1875,-2 3.125,-3.1875 1.9375,-1.1875 4.4375,-1.6875 2.5,-0.5625 5.1875,-0.5625 1.8125,0 3.1875,0.1875 1.4375,0.125 2.3125,0.375 l 0,-0.875 q 0,-2.375 -1.4375,-3.8125 -1.4375,-1.4375 -5,-1.4375 -2.375,0 -4.6875,0.375 -2.3125,0.3125 -4,0.9375 l -1.1875,-7.5 q 0.8125,-0.25 2,-0.5 1.25,-0.3125 2.6875,-0.5 1.4375,-0.25 3,-0.375 1.625,-0.1875 3.25,-0.1875 z" />
      <path
         inkscape:connector-curvature="0"
         id="path4284"
         style="font-style:normal;font-variant:normal;font-weight:bold;font-stretch:normal;font-size:medium;line-height:125%;font-family:Monospace;-inkscape-font-specification:Monospace;letter-spacing:0px;word-spacing:0px;fill:#ffffff;fill-opacity:1;stroke:none;stroke-width:1px;stroke-linecap:butt;stroke-linejoin:miter;stroke-opacity:1"
         d="m 223.34961,218.89792 q 2.375,-0.6875 6.125,-1.25 3.75,-0.625 7.875,-0.625 4.1875,0 6.9375,1.125 2.8125,1.0625 4.4375,3.0625 1.625,2 2.3125,4.75 0.6875,2.75 0.6875,6.125 l 0,18.5625 -9.3125,0 0,-17.4375 q 0,-4.5 -1.1875,-6.375 -1.1875,-1.875 -4.4375,-1.875 -1,0 -2.125,0.125 -1.125,0.0625 -2,0.1875 l 0,25.375 -9.3125,0 0,-31.75 z" />
      <path
         inkscape:connector-curvature="0"
         id="path4286"
         style="font-style:normal;font-variant:normal;font-weight:bold;font-stretch:normal;font-size:medium;line-height:125%;font-family:Monospace;-inkscape-font-specification:Monospace;letter-spacing:0px;word-spacing:0px;fill:#ffffff;fill-opacity:1;stroke:none;stroke-width:1px;stroke-linecap:butt;stroke-linejoin:miter;stroke-opacity:1"
         d="m 268.15235,233.14792 q 0,7.8125 6.3125,7.8125 1.4375,0 2.6875,-0.375 1.25,-0.375 2.125,-0.875 l 0,-14.875 q -0.6875,-0.125 -1.625,-0.1875 -0.9375,-0.125 -2.1875,-0.125 -3.6875,0 -5.5,2.4375 -1.8125,2.4375 -1.8125,6.1875 z m 20.4375,13.375 q 0,8.0625 -4.125,11.9375 -4.0625,3.9375 -12.625,3.9375 -3,0 -6,-0.5625 -3,-0.5 -5.5625,-1.375 l 1.625,-7.8125 q 2.1875,0.875 4.5625,1.375 2.4375,0.5 5.5,0.5 4,0 5.625,-1.75 1.6875,-1.75 1.6875,-4.5 l 0,-1.1875 q -1.5,0.6875 -3.125,1.0625 -1.5625,0.3125 -3.4375,0.3125 -6.8125,0 -10.4375,-4 -3.625,-4.0625 -3.625,-11.3125 0,-3.625 1.125,-6.5625 1.125,-3 3.25,-5.125 2.1875,-2.125 5.3125,-3.25 3.125,-1.1875 7.0625,-1.1875 1.6875,0 3.4375,0.1875 1.8125,0.125 3.5625,0.375 1.75,0.25 3.3125,0.625 1.625,0.3125 2.875,0.6875 l 0,27.625 z" />
      <path
         inkscape:connector-curvature="0"
         id="path4288"
         style="font-style:normal;font-variant:normal;font-weight:bold;font-stretch:normal;font-size:medium;line-height:125%;font-family:Monospace;-inkscape-font-specification:Monospace;letter-spacing:0px;word-spacing:0px;fill:#ffffff;fill-opacity:1;stroke:none;stroke-width:1px;stroke-linecap:butt;stroke-linejoin:miter;stroke-opacity:1"
         d="m 325.38672,249.52292 q -2.375,0.6875 -6.125,1.25 -3.75,0.625 -7.875,0.625 -4.1875,0 -7,-1.125 -2.75,-1.125 -4.375,-3.125 -1.625,-2.0625 -2.3125,-4.875 -0.6875,-2.8125 -0.6875,-6.1875 l 0,-18.3125 9.3125,0 0,17.1875 q 0,4.5 1.1875,6.5 1.1875,2 4.4375,2 1,0 2.125,-0.0625 1.125,-0.125 2,-0.25 l 0,-25.375 9.3125,0 0,31.75 z" />
      <path
         inkscape:connector-curvature="0"
         id="path4290"
         style="font-style:normal;font-variant:normal;font-weight:bold;font-stretch:normal;font-size:medium;line-height:125%;font-family:Monospace;-inkscape-font-specification:Monospace;letter-spacing:0px;word-spacing:0px;fill:#ffffff;fill-opacity:1;stroke:none;stroke-width:1px;stroke-linecap:butt;stroke-linejoin:miter;stroke-opacity:1"
         d="m 334.18946,218.89792 q 2.375,-0.6875 6.125,-1.25 3.75,-0.625 7.875,-0.625 4.1875,0 6.9375,1.125 2.8125,1.0625 4.4375,3.0625 1.625,2 2.3125,4.75 0.6875,2.75 0.6875,6.125 l 0,18.5625 -9.3125,0 0,-17.4375 q 0,-4.5 -1.1875,-6.375 -1.1875,-1.875 -4.4375,-1.875 -1,0 -2.125,0.125 -1.125,0.0625 -2,0.1875 l 0,25.375 -9.3125,0 0,-31.75 z" />
      <path
         inkscape:connector-curvature="0"
         id="path4292"
         style="font-style:normal;font-variant:normal;font-weight:bold;font-stretch:normal;font-size:medium;line-height:125%;font-family:Monospace;-inkscape-font-specification:Monospace;letter-spacing:0px;word-spacing:0px;fill:#ffffff;fill-opacity:1;stroke:none;stroke-width:1px;stroke-linecap:butt;stroke-linejoin:miter;stroke-opacity:1"
         d="m 383.61719,244.14792 q 1.375,0 2.625,-0.0625 1.25,-0.0625 2,-0.1875 l 0,-7.0625 q -0.5625,-0.125 -1.6875,-0.25 -1.125,-0.125 -2.0625,-0.125 -1.3125,0 -2.5,0.1875 -1.125,0.125 -2,0.5625 -0.875,0.4375 -1.375,1.1875 -0.5,0.75 -0.5,1.875 0,2.1875 1.4375,3.0625 1.5,0.8125 4.0625,0.8125 z m -0.75,-27.25 q 4.125,0 6.875,0.9375 2.75,0.9375 4.375,2.6875 1.6875,1.75 2.375,4.25 0.6875,2.5 0.6875,5.5625 l 0,19.375 q -2,0.4375 -5.5625,1 -3.5625,0.625 -8.625,0.625 -3.1875,0 -5.8125,-0.5625 -2.5625,-0.5625 -4.4375,-1.8125 -1.875,-1.3125 -2.875,-3.375 -1,-2.0625 -1,-5.0625 0,-2.875 1.125,-4.875 1.1875,-2 3.125,-3.1875 1.9375,-1.1875 4.4375,-1.6875 2.5,-0.5625 5.1875,-0.5625 1.8125,0 3.1875,0.1875 1.4375,0.125 2.3125,0.375 l 0,-0.875 q 0,-2.375 -1.4375,-3.8125 -1.4375,-1.4375 -5,-1.4375 -2.375,0 -4.6875,0.375 -2.3125,0.3125 -4,0.9375 l -1.1875,-7.5 q 0.8125,-0.25 2,-0.5 1.25,-0.3125 2.6875,-0.5 1.4375,-0.25 3,-0.375 1.625,-0.1875 3.25,-0.1875 z" />
      <path
         inkscape:connector-curvature="0"
         id="path4294"
         style="font-style:normal;font-variant:normal;font-weight:bold;font-stretch:normal;font-size:medium;line-height:125%;font-family:Monospace;-inkscape-font-specification:Monospace;letter-spacing:0px;word-spacing:0px;fill:#ffffff;fill-opacity:1;stroke:none;stroke-width:1px;stroke-linecap:butt;stroke-linejoin:miter;stroke-opacity:1"
         d="m 405.60059,218.89792 q 2.375,-0.6875 6.125,-1.25 3.75,-0.625 7.875,-0.625 4.1875,0 6.9375,1.125 2.8125,1.0625 4.4375,3.0625 1.625,2 2.3125,4.75 0.6875,2.75 0.6875,6.125 l 0,18.5625 -9.3125,0 0,-17.4375 q 0,-4.5 -1.1875,-6.375 -1.1875,-1.875 -4.4375,-1.875 -1,0 -2.125,0.125 -1.125,0.0625 -2,0.1875 l 0,25.375 -9.3125,0 0,-31.75 z" />
      <path
         inkscape:connector-curvature="0"
         id="path4296"
         style="font-style:normal;font-variant:normal;font-weight:300;font-stretch:normal;font-size:62.5px;line-height:125%;font-family:Ubuntu;-inkscape-font-specification:'Ubuntu Light';letter-spacing:0px;word-spacing:0px;fill:#ffc107;fill-opacity:1;stroke:none;stroke-width:1px;stroke-linecap:butt;stroke-linejoin:miter;stroke-opacity:1"
         d="m 449.21582,247.96042 q 0,1.4375 -0.9375,2.4375 -0.875,1 -2.5,1 -1.625,0 -2.5625,-1 -0.875,-1 -0.875,-2.4375 0,-1.4375 0.875,-2.4375 0.9375,-1 2.5625,-1 1.625,0 2.5,1 0.9375,1 0.9375,2.4375 z" />
      <path
         inkscape:connector-curvature="0"
         id="path4298"
         style="font-style:normal;font-variant:normal;font-weight:300;font-stretch:normal;font-size:62.5px;line-height:125%;font-family:Ubuntu;-inkscape-font-specification:'Ubuntu Light';letter-spacing:0px;word-spacing:0px;fill:#ffffff;fill-opacity:1;stroke:none;stroke-width:1px;stroke-linecap:butt;stroke-linejoin:miter;stroke-opacity:1"
         d="m 472.22168,251.33542 q -3.75,0 -6.625,-1.1875 -2.875,-1.1875 -4.8125,-3.375 -1.875,-2.25 -2.875,-5.3125 -1,-3.125 -1,-6.875 0,-3.8125 1,-6.9375 1.0625,-3.125 3,-5.375 1.9375,-2.25 4.6875,-3.4375 2.75,-1.25 6.1875,-1.25 2.625,0 4.875,0.4375 2.3125,0.4375 3.5625,1.125 l -1.0625,3.5 q -1.25,-0.625 -2.8125,-1 -1.5625,-0.375 -4.1875,-0.375 -5.375,0 -8.1875,3.5 -2.75,3.4375 -2.75,9.8125 0,2.875 0.625,5.3125 0.625,2.375 2,4.125 1.4375,1.6875 3.625,2.6875 2.25,0.9375 5.4375,0.9375 2.625,0 4.375,-0.5625 1.8125,-0.625 2.625,-1.0625 l 0.875,3.5 q -1.125,0.625 -3.5625,1.1875 -2.375,0.625 -5,0.625 z" />
      <path
         style="font-style:normal;font-variant:normal;font-weight:300;font-stretch:normal;font-size:62.5px;line-height:125%;font-family:Ubuntu;-inkscape-font-specification:'Ubuntu Light';letter-spacing:0px;word-spacing:0px;fill:#ffc107;fill-opacity:1;stroke:none;stroke-width:1px;stroke-linecap:butt;stroke-linejoin:miter;stroke-opacity:1"
         d="m 515.21778,234.52292 q 0,3.8125 -1.125,6.9375 -1.0625,3.125 -3.0625,5.3125 -1.9375,2.1875 -4.625,3.4375 -2.6875,1.1875 -5.9375,1.1875 -3.25,0 -5.9375,-1.1875 -2.6875,-1.25 -4.6875,-3.4375 -1.9375,-2.1875 -3.0625,-5.3125 -1.0625,-3.125 -1.0625,-6.9375 0,-3.8125 1.0625,-6.9375 1.125,-3.125 3.0625,-5.3125 2,-2.25 4.6875,-3.4375 2.6875,-1.25 5.9375,-1.25 3.25,0 5.9375,1.25 2.6875,1.1875 4.625,3.4375 2,2.1875 3.0625,5.3125 1.125,3.125 1.125,6.9375 z"
         id="path4300"
         inkscape:connector-curvature="0" />
      <path
         inkscape:connector-curvature="0"
         id="path4302"
         style="font-style:normal;font-variant:normal;font-weight:300;font-stretch:normal;font-size:62.5px;line-height:125%;font-family:Ubuntu;-inkscape-font-specification:'Ubuntu Light';letter-spacing:0px;word-spacing:0px;fill:#ffffff;fill-opacity:1;stroke:none;stroke-width:1px;stroke-linecap:butt;stroke-linejoin:miter;stroke-opacity:1"
         d="m 524.03223,219.46042 q 1.8125,-0.5 4.6875,-1.125 2.9375,-0.625 7.5625,-0.625 6.125,0 8.875,3.5625 0.3125,-0.25 1.1875,-0.8125 0.9375,-0.625 2.3125,-1.25 1.375,-0.625 3.1875,-1.0625 1.875,-0.4375 4.125,-0.4375 3.6875,0 5.9375,1.125 2.3125,1.0625 3.5625,3.0625 1.25,1.9375 1.6875,4.6875 0.4375,2.75 0.4375,6 l 0,18.0625 -4.0625,0 0,-16.75 q 0,-3.1875 -0.3125,-5.5 -0.25,-2.375 -1.125,-3.875 -0.8125,-1.5625 -2.375,-2.3125 -1.5625,-0.8125 -4.0625,-0.8125 -1.875,0 -3.4375,0.375 -1.5,0.3125 -2.625,0.8125 -1.125,0.5 -1.875,1 -0.6875,0.5 -1,0.75 0.5625,1.625 0.8125,3.6875 0.3125,2 0.3125,4.25 l 0,18.375 -4.0625,0 0,-16.75 q 0,-3.1875 -0.3125,-5.5 -0.25,-2.375 -1.125,-3.875 -0.875,-1.5625 -2.5,-2.3125 -1.5625,-0.8125 -4.1875,-0.8125 -2.9375,0 -5,0.3125 -2,0.3125 -2.5625,0.5625 l 0,28.375 -4.0625,0 0,-31.1875 z" />
    </g>
    <g
       inkscape:export-ydpi="89.626556"
       inkscape:export-xdpi="89.626556"
       id="g4171"
       transform="translate(0,106)">
      <path
         d="m 29.187502,218.33542 12.875,0 0,3.4375 -12.875,0 0,17.1875 q 0,2.75 0.4375,4.5 0.5,1.6875 1.375,2.625 0.875,0.9375 2.125,1.25 1.25,0.3125 2.75,0.3125 2.5625,0 4.125,-0.5625 1.5625,-0.625 2.4375,-1.125 l 1,3.375 q -0.875,0.5625 -3.0625,1.3125 -2.1875,0.6875 -4.75,0.6875 -3,0 -5.0625,-0.75 -2,-0.8125 -3.25,-2.375 -1.1875,-1.625 -1.6875,-4 -0.5,-2.375 -0.5,-5.625 l 0,-29.75 4.0625,-0.75 0,10.25 z"
         style="font-style:normal;font-variant:normal;font-weight:300;font-stretch:normal;font-size:62.5px;line-height:125%;font-family:Ubuntu;-inkscape-font-specification:'Ubuntu Light';letter-spacing:0px;word-spacing:0px;fill:#ffffff;fill-opacity:1;stroke:none;stroke-width:1px;stroke-linecap:butt;stroke-linejoin:miter;stroke-opacity:1"
         id="path4173"
         inkscape:connector-curvature="0" />
      <path
         inkscape:connector-curvature="0"
         id="path4175"
         d="m 77.107424,234.52292 q 0,3.8125 -1.125,6.9375 -1.0625,3.125 -3.0625,5.3125 -1.9375,2.1875 -4.625,3.4375 -2.6875,1.1875 -5.9375,1.1875 -3.25,0 -5.9375,-1.1875 -2.6875,-1.25 -4.6875,-3.4375 -1.9375,-2.1875 -3.0625,-5.3125 -1.0625,-3.125 -1.0625,-6.9375 0,-3.8125 1.0625,-6.9375 1.125,-3.125 3.0625,-5.3125 2,-2.25 4.6875,-3.4375 2.6875,-1.25 5.9375,-1.25 3.25,0 5.9375,1.25 2.6875,1.1875 4.625,3.4375 2,2.1875 3.0625,5.3125 1.125,3.125 1.125,6.9375 z"
         style="font-style:normal;font-variant:normal;font-weight:300;font-stretch:normal;font-size:62.5px;line-height:125%;font-family:Ubuntu;-inkscape-font-specification:'Ubuntu Light';letter-spacing:0px;word-spacing:0px;fill:#ffc107;fill-opacity:1;stroke:none;stroke-width:1px;stroke-linecap:butt;stroke-linejoin:miter;stroke-opacity:1" />
      <path
         d="m 94.546877,233.08542 q 1.9375,1.3125 4.125,3.375 2.250003,2.0625 4.375003,4.5 2.1875,2.375 4.0625,4.9375 1.9375,2.5 3.25,4.75 l -4.8125,0 q -1.5,-2.5 -3.4375,-4.875 -1.875,-2.4375 -4.000003,-4.5625 -2.0625,-2.125 -4.1875,-3.875 -2.0625,-1.75 -3.9375,-2.9375 l 0,16.25 -4.0625,0 0,-47.75 4.0625,-0.75 0,30.75 q 1.5625,-1.5 3.5,-3.4375 1.9375,-1.9375 3.875,-3.9375 2,-2 3.750003,-3.875 1.75,-1.875 3,-3.3125 l 4.875,0 q -1.4375,1.5 -3.25,3.375 -1.8125,1.875 -3.8125,3.9375 -1.937503,2 -3.875003,3.9375 -1.9375,1.9375 -3.5,3.5 z"
         style="font-style:normal;font-variant:normal;font-weight:300;font-stretch:normal;font-size:62.5px;line-height:125%;font-family:Ubuntu;-inkscape-font-specification:'Ubuntu Light';letter-spacing:0px;word-spacing:0px;fill:#ffffff;fill-opacity:1;stroke:none;stroke-width:1px;stroke-linecap:butt;stroke-linejoin:miter;stroke-opacity:1"
         id="path4177"
         inkscape:connector-curvature="0" />
      <path
         inkscape:connector-curvature="0"
         id="path4179"
         d="m 143.26953,234.52292 q 0,3.8125 -1.125,6.9375 -1.0625,3.125 -3.0625,5.3125 -1.9375,2.1875 -4.625,3.4375 -2.6875,1.1875 -5.9375,1.1875 -3.25,0 -5.9375,-1.1875 -2.6875,-1.25 -4.6875,-3.4375 -1.9375,-2.1875 -3.0625,-5.3125 -1.0625,-3.125 -1.0625,-6.9375 0,-3.8125 1.0625,-6.9375 1.125,-3.125 3.0625,-5.3125 2,-2.25 4.6875,-3.4375 2.6875,-1.25 5.9375,-1.25 3.25,0 5.9375,1.25 2.6875,1.1875 4.625,3.4375 2,2.1875 3.0625,5.3125 1.125,3.125 1.125,6.9375 z"
         style="font-style:normal;font-variant:normal;font-weight:300;font-stretch:normal;font-size:62.5px;line-height:125%;font-family:Ubuntu;-inkscape-font-specification:'Ubuntu Light';letter-spacing:0px;word-spacing:0px;fill:#ffc107;fill-opacity:1;stroke:none;stroke-width:1px;stroke-linecap:butt;stroke-linejoin:miter;stroke-opacity:1" />
      <path
         d="m 172.14649,233.96042 q 0,-9 -6.625,-9 -1.4375,0 -2.875,0.375 -1.375,0.375 -2.25,0.9375 l 0,16.9375 q 0.6875,0.125 1.75,0.25 1.0625,0.0625 2.3125,0.0625 3.8125,0 5.75,-2.625 1.9375,-2.625 1.9375,-6.9375 z m 9.5,0.25 q 0,3.9375 -1.1875,7.125 -1.125,3.1875 -3.3125,5.4375 -2.1875,2.25 -5.375,3.5 -3.1875,1.1875 -7.25,1.1875 -1.6875,0 -3.5625,-0.1875 -1.8125,-0.125 -3.625,-0.375 -1.75,-0.25 -3.375,-0.5625 -1.625,-0.375 -2.875,-0.75 l 0,-45.9375 9.3125,-1.5 0,16.375 q 1.5625,-0.6875 3.25,-1.0625 1.6875,-0.375 3.625,-0.375 3.5,0 6.1875,1.25 2.6875,1.1875 4.5,3.4375 1.8125,2.25 2.75,5.4375 0.9375,3.125 0.9375,7 z"
         style="font-style:normal;font-variant:normal;font-weight:bold;font-stretch:normal;font-size:medium;line-height:125%;font-family:Monospace;-inkscape-font-specification:Monospace;letter-spacing:0px;word-spacing:0px;fill:#ffffff;fill-opacity:1;stroke:none;stroke-width:1px;stroke-linecap:butt;stroke-linejoin:miter;stroke-opacity:1"
         id="path4181"
         inkscape:connector-curvature="0" />
      <path
         d="m 201.36621,244.14792 q 1.375,0 2.625,-0.0625 1.25,-0.0625 2,-0.1875 l 0,-7.0625 q -0.5625,-0.125 -1.6875,-0.25 -1.125,-0.125 -2.0625,-0.125 -1.3125,0 -2.5,0.1875 -1.125,0.125 -2,0.5625 -0.875,0.4375 -1.375,1.1875 -0.5,0.75 -0.5,1.875 0,2.1875 1.4375,3.0625 1.5,0.8125 4.0625,0.8125 z m -0.75,-27.25 q 4.125,0 6.875,0.9375 2.75,0.9375 4.375,2.6875 1.6875,1.75 2.375,4.25 0.6875,2.5 0.6875,5.5625 l 0,19.375 q -2,0.4375 -5.5625,1 -3.5625,0.625 -8.625,0.625 -3.1875,0 -5.8125,-0.5625 -2.5625,-0.5625 -4.4375,-1.8125 -1.875,-1.3125 -2.875,-3.375 -1,-2.0625 -1,-5.0625 0,-2.875 1.125,-4.875 1.1875,-2 3.125,-3.1875 1.9375,-1.1875 4.4375,-1.6875 2.5,-0.5625 5.1875,-0.5625 1.8125,0 3.1875,0.1875 1.4375,0.125 2.3125,0.375 l 0,-0.875 q 0,-2.375 -1.4375,-3.8125 -1.4375,-1.4375 -5,-1.4375 -2.375,0 -4.6875,0.375 -2.3125,0.3125 -4,0.9375 l -1.1875,-7.5 q 0.8125,-0.25 2,-0.5 1.25,-0.3125 2.6875,-0.5 1.4375,-0.25 3,-0.375 1.625,-0.1875 3.25,-0.1875 z"
         style="font-style:normal;font-variant:normal;font-weight:bold;font-stretch:normal;font-size:medium;line-height:125%;font-family:Monospace;-inkscape-font-specification:Monospace;letter-spacing:0px;word-spacing:0px;fill:#ffffff;fill-opacity:1;stroke:none;stroke-width:1px;stroke-linecap:butt;stroke-linejoin:miter;stroke-opacity:1"
         id="path4183"
         inkscape:connector-curvature="0" />
      <path
         d="m 223.34961,218.89792 q 2.375,-0.6875 6.125,-1.25 3.75,-0.625 7.875,-0.625 4.1875,0 6.9375,1.125 2.8125,1.0625 4.4375,3.0625 1.625,2 2.3125,4.75 0.6875,2.75 0.6875,6.125 l 0,18.5625 -9.3125,0 0,-17.4375 q 0,-4.5 -1.1875,-6.375 -1.1875,-1.875 -4.4375,-1.875 -1,0 -2.125,0.125 -1.125,0.0625 -2,0.1875 l 0,25.375 -9.3125,0 0,-31.75 z"
         style="font-style:normal;font-variant:normal;font-weight:bold;font-stretch:normal;font-size:medium;line-height:125%;font-family:Monospace;-inkscape-font-specification:Monospace;letter-spacing:0px;word-spacing:0px;fill:#ffffff;fill-opacity:1;stroke:none;stroke-width:1px;stroke-linecap:butt;stroke-linejoin:miter;stroke-opacity:1"
         id="path4185"
         inkscape:connector-curvature="0" />
      <path
         d="m 268.15235,233.14792 q 0,7.8125 6.3125,7.8125 1.4375,0 2.6875,-0.375 1.25,-0.375 2.125,-0.875 l 0,-14.875 q -0.6875,-0.125 -1.625,-0.1875 -0.9375,-0.125 -2.1875,-0.125 -3.6875,0 -5.5,2.4375 -1.8125,2.4375 -1.8125,6.1875 z m 20.4375,13.375 q 0,8.0625 -4.125,11.9375 -4.0625,3.9375 -12.625,3.9375 -3,0 -6,-0.5625 -3,-0.5 -5.5625,-1.375 l 1.625,-7.8125 q 2.1875,0.875 4.5625,1.375 2.4375,0.5 5.5,0.5 4,0 5.625,-1.75 1.6875,-1.75 1.6875,-4.5 l 0,-1.1875 q -1.5,0.6875 -3.125,1.0625 -1.5625,0.3125 -3.4375,0.3125 -6.8125,0 -10.4375,-4 -3.625,-4.0625 -3.625,-11.3125 0,-3.625 1.125,-6.5625 1.125,-3 3.25,-5.125 2.1875,-2.125 5.3125,-3.25 3.125,-1.1875 7.0625,-1.1875 1.6875,0 3.4375,0.1875 1.8125,0.125 3.5625,0.375 1.75,0.25 3.3125,0.625 1.625,0.3125 2.875,0.6875 l 0,27.625 z"
         style="font-style:normal;font-variant:normal;font-weight:bold;font-stretch:normal;font-size:medium;line-height:125%;font-family:Monospace;-inkscape-font-specification:Monospace;letter-spacing:0px;word-spacing:0px;fill:#ffffff;fill-opacity:1;stroke:none;stroke-width:1px;stroke-linecap:butt;stroke-linejoin:miter;stroke-opacity:1"
         id="path4187"
         inkscape:connector-curvature="0" />
      <path
         d="m 325.38672,249.52292 q -2.375,0.6875 -6.125,1.25 -3.75,0.625 -7.875,0.625 -4.1875,0 -7,-1.125 -2.75,-1.125 -4.375,-3.125 -1.625,-2.0625 -2.3125,-4.875 -0.6875,-2.8125 -0.6875,-6.1875 l 0,-18.3125 9.3125,0 0,17.1875 q 0,4.5 1.1875,6.5 1.1875,2 4.4375,2 1,0 2.125,-0.0625 1.125,-0.125 2,-0.25 l 0,-25.375 9.3125,0 0,31.75 z"
         style="font-style:normal;font-variant:normal;font-weight:bold;font-stretch:normal;font-size:medium;line-height:125%;font-family:Monospace;-inkscape-font-specification:Monospace;letter-spacing:0px;word-spacing:0px;fill:#ffffff;fill-opacity:1;stroke:none;stroke-width:1px;stroke-linecap:butt;stroke-linejoin:miter;stroke-opacity:1"
         id="path4189"
         inkscape:connector-curvature="0" />
      <path
         d="m 334.18946,218.89792 q 2.375,-0.6875 6.125,-1.25 3.75,-0.625 7.875,-0.625 4.1875,0 6.9375,1.125 2.8125,1.0625 4.4375,3.0625 1.625,2 2.3125,4.75 0.6875,2.75 0.6875,6.125 l 0,18.5625 -9.3125,0 0,-17.4375 q 0,-4.5 -1.1875,-6.375 -1.1875,-1.875 -4.4375,-1.875 -1,0 -2.125,0.125 -1.125,0.0625 -2,0.1875 l 0,25.375 -9.3125,0 0,-31.75 z"
         style="font-style:normal;font-variant:normal;font-weight:bold;font-stretch:normal;font-size:medium;line-height:125%;font-family:Monospace;-inkscape-font-specification:Monospace;letter-spacing:0px;word-spacing:0px;fill:#ffffff;fill-opacity:1;stroke:none;stroke-width:1px;stroke-linecap:butt;stroke-linejoin:miter;stroke-opacity:1"
         id="path4191"
         inkscape:connector-curvature="0" />
      <path
         d="m 383.61719,244.14792 q 1.375,0 2.625,-0.0625 1.25,-0.0625 2,-0.1875 l 0,-7.0625 q -0.5625,-0.125 -1.6875,-0.25 -1.125,-0.125 -2.0625,-0.125 -1.3125,0 -2.5,0.1875 -1.125,0.125 -2,0.5625 -0.875,0.4375 -1.375,1.1875 -0.5,0.75 -0.5,1.875 0,2.1875 1.4375,3.0625 1.5,0.8125 4.0625,0.8125 z m -0.75,-27.25 q 4.125,0 6.875,0.9375 2.75,0.9375 4.375,2.6875 1.6875,1.75 2.375,4.25 0.6875,2.5 0.6875,5.5625 l 0,19.375 q -2,0.4375 -5.5625,1 -3.5625,0.625 -8.625,0.625 -3.1875,0 -5.8125,-0.5625 -2.5625,-0.5625 -4.4375,-1.8125 -1.875,-1.3125 -2.875,-3.375 -1,-2.0625 -1,-5.0625 0,-2.875 1.125,-4.875 1.1875,-2 3.125,-3.1875 1.9375,-1.1875 4.4375,-1.6875 2.5,-0.5625 5.1875,-0.5625 1.8125,0 3.1875,0.1875 1.4375,0.125 2.3125,0.375 l 0,-0.875 q 0,-2.375 -1.4375,-3.8125 -1.4375,-1.4375 -5,-1.4375 -2.375,0 -4.6875,0.375 -2.3125,0.3125 -4,0.9375 l -1.1875,-7.5 q 0.8125,-0.25 2,-0.5 1.25,-0.3125 2.6875,-0.5 1.4375,-0.25 3,-0.375 1.625,-0.1875 3.25,-0.1875 z"
         style="font-style:normal;font-variant:normal;font-weight:bold;font-stretch:normal;font-size:medium;line-height:125%;font-family:Monospace;-inkscape-font-specification:Monospace;letter-spacing:0px;word-spacing:0px;fill:#ffffff;fill-opacity:1;stroke:none;stroke-width:1px;stroke-linecap:butt;stroke-linejoin:miter;stroke-opacity:1"
         id="path4193"
         inkscape:connector-curvature="0" />
      <path
         d="m 405.60059,218.89792 q 2.375,-0.6875 6.125,-1.25 3.75,-0.625 7.875,-0.625 4.1875,0 6.9375,1.125 2.8125,1.0625 4.4375,3.0625 1.625,2 2.3125,4.75 0.6875,2.75 0.6875,6.125 l 0,18.5625 -9.3125,0 0,-17.4375 q 0,-4.5 -1.1875,-6.375 -1.1875,-1.875 -4.4375,-1.875 -1,0 -2.125,0.125 -1.125,0.0625 -2,0.1875 l 0,25.375 -9.3125,0 0,-31.75 z"
         style="font-style:normal;font-variant:normal;font-weight:bold;font-stretch:normal;font-size:medium;line-height:125%;font-family:Monospace;-inkscape-font-specification:Monospace;letter-spacing:0px;word-spacing:0px;fill:#ffffff;fill-opacity:1;stroke:none;stroke-width:1px;stroke-linecap:butt;stroke-linejoin:miter;stroke-opacity:1"
         id="path4195"
         inkscape:connector-curvature="0" />
      <path
         d="m 449.21582,247.96042 q 0,1.4375 -0.9375,2.4375 -0.875,1 -2.5,1 -1.625,0 -2.5625,-1 -0.875,-1 -0.875,-2.4375 0,-1.4375 0.875,-2.4375 0.9375,-1 2.5625,-1 1.625,0 2.5,1 0.9375,1 0.9375,2.4375 z"
         style="font-style:normal;font-variant:normal;font-weight:300;font-stretch:normal;font-size:62.5px;line-height:125%;font-family:Ubuntu;-inkscape-font-specification:'Ubuntu Light';letter-spacing:0px;word-spacing:0px;fill:#ffc107;fill-opacity:1;stroke:none;stroke-width:1px;stroke-linecap:butt;stroke-linejoin:miter;stroke-opacity:1"
         id="path4197"
         inkscape:connector-curvature="0" />
      <path
         d="m 472.22168,251.33542 q -3.75,0 -6.625,-1.1875 -2.875,-1.1875 -4.8125,-3.375 -1.875,-2.25 -2.875,-5.3125 -1,-3.125 -1,-6.875 0,-3.8125 1,-6.9375 1.0625,-3.125 3,-5.375 1.9375,-2.25 4.6875,-3.4375 2.75,-1.25 6.1875,-1.25 2.625,0 4.875,0.4375 2.3125,0.4375 3.5625,1.125 l -1.0625,3.5 q -1.25,-0.625 -2.8125,-1 -1.5625,-0.375 -4.1875,-0.375 -5.375,0 -8.1875,3.5 -2.75,3.4375 -2.75,9.8125 0,2.875 0.625,5.3125 0.625,2.375 2,4.125 1.4375,1.6875 3.625,2.6875 2.25,0.9375 5.4375,0.9375 2.625,0 4.375,-0.5625 1.8125,-0.625 2.625,-1.0625 l 0.875,3.5 q -1.125,0.625 -3.5625,1.1875 -2.375,0.625 -5,0.625 z"
         style="font-style:normal;font-variant:normal;font-weight:300;font-stretch:normal;font-size:62.5px;line-height:125%;font-family:Ubuntu;-inkscape-font-specification:'Ubuntu Light';letter-spacing:0px;word-spacing:0px;fill:#ffffff;fill-opacity:1;stroke:none;stroke-width:1px;stroke-linecap:butt;stroke-linejoin:miter;stroke-opacity:1"
         id="path4199"
         inkscape:connector-curvature="0" />
      <path
         inkscape:connector-curvature="0"
         id="path4201"
         d="m 515.21778,234.52292 q 0,3.8125 -1.125,6.9375 -1.0625,3.125 -3.0625,5.3125 -1.9375,2.1875 -4.625,3.4375 -2.6875,1.1875 -5.9375,1.1875 -3.25,0 -5.9375,-1.1875 -2.6875,-1.25 -4.6875,-3.4375 -1.9375,-2.1875 -3.0625,-5.3125 -1.0625,-3.125 -1.0625,-6.9375 0,-3.8125 1.0625,-6.9375 1.125,-3.125 3.0625,-5.3125 2,-2.25 4.6875,-3.4375 2.6875,-1.25 5.9375,-1.25 3.25,0 5.9375,1.25 2.6875,1.1875 4.625,3.4375 2,2.1875 3.0625,5.3125 1.125,3.125 1.125,6.9375 z"
         style="font-style:normal;font-variant:normal;font-weight:300;font-stretch:normal;font-size:62.5px;line-height:125%;font-family:Ubuntu;-inkscape-font-specification:'Ubuntu Light';letter-spacing:0px;word-spacing:0px;fill:#ffc107;fill-opacity:1;stroke:none;stroke-width:1px;stroke-linecap:butt;stroke-linejoin:miter;stroke-opacity:1" />
      <path
         d="m 524.03223,219.46042 q 1.8125,-0.5 4.6875,-1.125 2.9375,-0.625 7.5625,-0.625 6.125,0 8.875,3.5625 0.3125,-0.25 1.1875,-0.8125 0.9375,-0.625 2.3125,-1.25 1.375,-0.625 3.1875,-1.0625 1.875,-0.4375 4.125,-0.4375 3.6875,0 5.9375,1.125 2.3125,1.0625 3.5625,3.0625 1.25,1.9375 1.6875,4.6875 0.4375,2.75 0.4375,6 l 0,18.0625 -4.0625,0 0,-16.75 q 0,-3.1875 -0.3125,-5.5 -0.25,-2.375 -1.125,-3.875 -0.8125,-1.5625 -2.375,-2.3125 -1.5625,-0.8125 -4.0625,-0.8125 -1.875,0 -3.4375,0.375 -1.5,0.3125 -2.625,0.8125 -1.125,0.5 -1.875,1 -0.6875,0.5 -1,0.75 0.5625,1.625 0.8125,3.6875 0.3125,2 0.3125,4.25 l 0,18.375 -4.0625,0 0,-16.75 q 0,-3.1875 -0.3125,-5.5 -0.25,-2.375 -1.125,-3.875 -0.875,-1.5625 -2.5,-2.3125 -1.5625,-0.8125 -4.1875,-0.8125 -2.9375,0 -5,0.3125 -2,0.3125 -2.5625,0.5625 l 0,28.375 -4.0625,0 0,-31.1875 z"
         style="font-style:normal;font-variant:normal;font-weight:300;font-stretch:normal;font-size:62.5px;line-height:125%;font-family:Ubuntu;-inkscape-font-specification:'Ubuntu Light';letter-spacing:0px;word-spacing:0px;fill:#ffffff;fill-opacity:1;stroke:none;stroke-width:1px;stroke-linecap:butt;stroke-linejoin:miter;stroke-opacity:1"
         id="path4203"
         inkscape:connector-curvature="0" />
    </g>
    <g
       id="g4188"
       transform="translate(0,296)"
       inkscape:export-xdpi="90"
       inkscape:export-ydpi="90">
      <path
         inkscape:connector-curvature="0"
         id="path4190"
         style="font-style:normal;font-variant:normal;font-weight:300;font-stretch:normal;font-size:62.5px;line-height:125%;font-family:Ubuntu;-inkscape-font-specification:'Ubuntu Light';letter-spacing:0px;word-spacing:0px;fill:#000000;fill-opacity:1;stroke:none;stroke-width:1px;stroke-linecap:butt;stroke-linejoin:miter;stroke-opacity:1"
         d="m 29.187502,120.33542 12.875,0 0,3.4375 -12.875,0 0,17.1875 q 0,2.75 0.4375,4.5 0.5,1.6875 1.375,2.625 0.875,0.9375 2.125,1.25 1.25,0.3125 2.75,0.3125 2.5625,0 4.125,-0.5625 1.5625,-0.625 2.4375,-1.125 l 1,3.375 q -0.875,0.5625 -3.0625,1.3125 -2.1875,0.6875 -4.75,0.6875 -3,0 -5.0625,-0.75 -2,-0.8125 -3.25,-2.375 -1.1875,-1.625 -1.6875,-4 -0.5,-2.375 -0.5,-5.625 l 0,-29.75 4.0625,-0.75 0,10.25 z" />
      <path
         style="font-style:normal;font-variant:normal;font-weight:300;font-stretch:normal;font-size:62.5px;line-height:125%;font-family:Ubuntu;-inkscape-font-specification:'Ubuntu Light';letter-spacing:0px;word-spacing:0px;fill:#ffc107;fill-opacity:1;stroke:none;stroke-width:1px;stroke-linecap:butt;stroke-linejoin:miter;stroke-opacity:1"
         d="m 77.107424,136.52292 q 0,3.8125 -1.125,6.9375 -1.0625,3.125 -3.0625,5.3125 -1.9375,2.1875 -4.625,3.4375 -2.6875,1.1875 -5.9375,1.1875 -3.25,0 -5.9375,-1.1875 -2.6875,-1.25 -4.6875,-3.4375 -1.9375,-2.1875 -3.0625,-5.3125 -1.0625,-3.125 -1.0625,-6.9375 0,-3.8125 1.0625,-6.9375 1.125,-3.125 3.0625,-5.3125 2,-2.25 4.6875,-3.4375 2.6875,-1.25 5.9375,-1.25 3.25,0 5.9375,1.25 2.6875,1.1875 4.625,3.4375 2,2.1875 3.0625,5.3125 1.125,3.125 1.125,6.9375 z"
         id="path4194"
         inkscape:connector-curvature="0" />
      <path
         inkscape:connector-curvature="0"
         id="path4198"
         style="font-style:normal;font-variant:normal;font-weight:300;font-stretch:normal;font-size:62.5px;line-height:125%;font-family:Ubuntu;-inkscape-font-specification:'Ubuntu Light';letter-spacing:0px;word-spacing:0px;fill:#000000;fill-opacity:1;stroke:none;stroke-width:1px;stroke-linecap:butt;stroke-linejoin:miter;stroke-opacity:1"
         d="m 94.546877,135.08542 q 1.9375,1.3125 4.125,3.375 2.250003,2.0625 4.375003,4.5 2.1875,2.375 4.0625,4.9375 1.9375,2.5 3.25,4.75 l -4.8125,0 q -1.5,-2.5 -3.4375,-4.875 -1.875,-2.4375 -4.000003,-4.5625 -2.0625,-2.125 -4.1875,-3.875 -2.0625,-1.75 -3.9375,-2.9375 l 0,16.25 -4.0625,0 0,-47.75 4.0625,-0.75 0,30.75 q 1.5625,-1.5 3.5,-3.4375 1.9375,-1.9375 3.875,-3.9375 2,-2 3.750003,-3.875 1.75,-1.875 3,-3.3125 l 4.875,0 q -1.4375,1.5 -3.25,3.375 -1.8125,1.875 -3.8125,3.9375 -1.937503,2 -3.875003,3.9375 -1.9375,1.9375 -3.5,3.5 z" />
      <path
         style="font-style:normal;font-variant:normal;font-weight:300;font-stretch:normal;font-size:62.5px;line-height:125%;font-family:Ubuntu;-inkscape-font-specification:'Ubuntu Light';letter-spacing:0px;word-spacing:0px;fill:#ffc107;fill-opacity:1;stroke:none;stroke-width:1px;stroke-linecap:butt;stroke-linejoin:miter;stroke-opacity:1"
         d="m 143.26953,136.52292 q 0,3.8125 -1.125,6.9375 -1.0625,3.125 -3.0625,5.3125 -1.9375,2.1875 -4.625,3.4375 -2.6875,1.1875 -5.9375,1.1875 -3.25,0 -5.9375,-1.1875 -2.6875,-1.25 -4.6875,-3.4375 -1.9375,-2.1875 -3.0625,-5.3125 -1.0625,-3.125 -1.0625,-6.9375 0,-3.8125 1.0625,-6.9375 1.125,-3.125 3.0625,-5.3125 2,-2.25 4.6875,-3.4375 2.6875,-1.25 5.9375,-1.25 3.25,0 5.9375,1.25 2.6875,1.1875 4.625,3.4375 2,2.1875 3.0625,5.3125 1.125,3.125 1.125,6.9375 z"
         id="path4205"
         inkscape:connector-curvature="0" />
      <path
         inkscape:connector-curvature="0"
         id="path4207"
         style="font-style:normal;font-variant:normal;font-weight:bold;font-stretch:normal;font-size:medium;line-height:125%;font-family:Monospace;-inkscape-font-specification:Monospace;letter-spacing:0px;word-spacing:0px;fill:#000000;fill-opacity:1;stroke:none;stroke-width:1px;stroke-linecap:butt;stroke-linejoin:miter;stroke-opacity:1"
         d="m 172.14649,135.96042 q 0,-9 -6.625,-9 -1.4375,0 -2.875,0.375 -1.375,0.375 -2.25,0.9375 l 0,16.9375 q 0.6875,0.125 1.75,0.25 1.0625,0.0625 2.3125,0.0625 3.8125,0 5.75,-2.625 1.9375,-2.625 1.9375,-6.9375 z m 9.5,0.25 q 0,3.9375 -1.1875,7.125 -1.125,3.1875 -3.3125,5.4375 -2.1875,2.25 -5.375,3.5 -3.1875,1.1875 -7.25,1.1875 -1.6875,0 -3.5625,-0.1875 -1.8125,-0.125 -3.625,-0.375 -1.75,-0.25 -3.375,-0.5625 -1.625,-0.375 -2.875,-0.75 l 0,-45.9375 9.3125,-1.5 0,16.375 q 1.5625,-0.6875 3.25,-1.0625 1.6875,-0.375 3.625,-0.375 3.5,0 6.1875,1.25 2.6875,1.1875 4.5,3.4375 1.8125,2.25 2.75,5.4375 0.9375,3.125 0.9375,7 z" />
      <path
         inkscape:connector-curvature="0"
         id="path4209"
         style="font-style:normal;font-variant:normal;font-weight:bold;font-stretch:normal;font-size:medium;line-height:125%;font-family:Monospace;-inkscape-font-specification:Monospace;letter-spacing:0px;word-spacing:0px;fill:#000000;fill-opacity:1;stroke:none;stroke-width:1px;stroke-linecap:butt;stroke-linejoin:miter;stroke-opacity:1"
         d="m 201.36621,146.14792 q 1.375,0 2.625,-0.0625 1.25,-0.0625 2,-0.1875 l 0,-7.0625 q -0.5625,-0.125 -1.6875,-0.25 -1.125,-0.125 -2.0625,-0.125 -1.3125,0 -2.5,0.1875 -1.125,0.125 -2,0.5625 -0.875,0.4375 -1.375,1.1875 -0.5,0.75 -0.5,1.875 0,2.1875 1.4375,3.0625 1.5,0.8125 4.0625,0.8125 z m -0.75,-27.25 q 4.125,0 6.875,0.9375 2.75,0.9375 4.375,2.6875 1.6875,1.75 2.375,4.25 0.6875,2.5 0.6875,5.5625 l 0,19.375 q -2,0.4375 -5.5625,1 -3.5625,0.625 -8.625,0.625 -3.1875,0 -5.8125,-0.5625 -2.5625,-0.5625 -4.4375,-1.8125 -1.875,-1.3125 -2.875,-3.375 -1,-2.0625 -1,-5.0625 0,-2.875 1.125,-4.875 1.1875,-2 3.125,-3.1875 1.9375,-1.1875 4.4375,-1.6875 2.5,-0.5625 5.1875,-0.5625 1.8125,0 3.1875,0.1875 1.4375,0.125 2.3125,0.375 l 0,-0.875 q 0,-2.375 -1.4375,-3.8125 -1.4375,-1.4375 -5,-1.4375 -2.375,0 -4.6875,0.375 -2.3125,0.3125 -4,0.9375 l -1.1875,-7.5 q 0.8125,-0.25 2,-0.5 1.25,-0.3125 2.6875,-0.5 1.4375,-0.25 3,-0.375 1.625,-0.1875 3.25,-0.1875 z" />
      <path
         inkscape:connector-curvature="0"
         id="path4211"
         style="font-style:normal;font-variant:normal;font-weight:bold;font-stretch:normal;font-size:medium;line-height:125%;font-family:Monospace;-inkscape-font-specification:Monospace;letter-spacing:0px;word-spacing:0px;fill:#000000;fill-opacity:1;stroke:none;stroke-width:1px;stroke-linecap:butt;stroke-linejoin:miter;stroke-opacity:1"
         d="m 223.34961,120.89792 q 2.375,-0.6875 6.125,-1.25 3.75,-0.625 7.875,-0.625 4.1875,0 6.9375,1.125 2.8125,1.0625 4.4375,3.0625 1.625,2 2.3125,4.75 0.6875,2.75 0.6875,6.125 l 0,18.5625 -9.3125,0 0,-17.4375 q 0,-4.5 -1.1875,-6.375 -1.1875,-1.875 -4.4375,-1.875 -1,0 -2.125,0.125 -1.125,0.0625 -2,0.1875 l 0,25.375 -9.3125,0 0,-31.75 z" />
      <path
         inkscape:connector-curvature="0"
         id="path4213"
         style="font-style:normal;font-variant:normal;font-weight:bold;font-stretch:normal;font-size:medium;line-height:125%;font-family:Monospace;-inkscape-font-specification:Monospace;letter-spacing:0px;word-spacing:0px;fill:#000000;fill-opacity:1;stroke:none;stroke-width:1px;stroke-linecap:butt;stroke-linejoin:miter;stroke-opacity:1"
         d="m 268.15235,135.14792 q 0,7.8125 6.3125,7.8125 1.4375,0 2.6875,-0.375 1.25,-0.375 2.125,-0.875 l 0,-14.875 q -0.6875,-0.125 -1.625,-0.1875 -0.9375,-0.125 -2.1875,-0.125 -3.6875,0 -5.5,2.4375 -1.8125,2.4375 -1.8125,6.1875 z m 20.4375,13.375 q 0,8.0625 -4.125,11.9375 -4.0625,3.9375 -12.625,3.9375 -3,0 -6,-0.5625 -3,-0.5 -5.5625,-1.375 l 1.625,-7.8125 q 2.1875,0.875 4.5625,1.375 2.4375,0.5 5.5,0.5 4,0 5.625,-1.75 1.6875,-1.75 1.6875,-4.5 l 0,-1.1875 q -1.5,0.6875 -3.125,1.0625 -1.5625,0.3125 -3.4375,0.3125 -6.8125,0 -10.4375,-4 -3.625,-4.0625 -3.625,-11.3125 0,-3.625 1.125,-6.5625 1.125,-3 3.25,-5.125 2.1875,-2.125 5.3125,-3.25 3.125,-1.1875 7.0625,-1.1875 1.6875,0 3.4375,0.1875 1.8125,0.125 3.5625,0.375 1.75,0.25 3.3125,0.625 1.625,0.3125 2.875,0.6875 l 0,27.625 z" />
      <path
         inkscape:connector-curvature="0"
         id="path4215"
         style="font-style:normal;font-variant:normal;font-weight:bold;font-stretch:normal;font-size:medium;line-height:125%;font-family:Monospace;-inkscape-font-specification:Monospace;letter-spacing:0px;word-spacing:0px;fill:#000000;fill-opacity:1;stroke:none;stroke-width:1px;stroke-linecap:butt;stroke-linejoin:miter;stroke-opacity:1"
         d="m 325.38672,151.52292 q -2.375,0.6875 -6.125,1.25 -3.75,0.625 -7.875,0.625 -4.1875,0 -7,-1.125 -2.75,-1.125 -4.375,-3.125 -1.625,-2.0625 -2.3125,-4.875 -0.6875,-2.8125 -0.6875,-6.1875 l 0,-18.3125 9.3125,0 0,17.1875 q 0,4.5 1.1875,6.5 1.1875,2 4.4375,2 1,0 2.125,-0.0625 1.125,-0.125 2,-0.25 l 0,-25.375 9.3125,0 0,31.75 z" />
      <path
         inkscape:connector-curvature="0"
         id="path4217"
         style="font-style:normal;font-variant:normal;font-weight:bold;font-stretch:normal;font-size:medium;line-height:125%;font-family:Monospace;-inkscape-font-specification:Monospace;letter-spacing:0px;word-spacing:0px;fill:#000000;fill-opacity:1;stroke:none;stroke-width:1px;stroke-linecap:butt;stroke-linejoin:miter;stroke-opacity:1"
         d="m 334.18946,120.89792 q 2.375,-0.6875 6.125,-1.25 3.75,-0.625 7.875,-0.625 4.1875,0 6.9375,1.125 2.8125,1.0625 4.4375,3.0625 1.625,2 2.3125,4.75 0.6875,2.75 0.6875,6.125 l 0,18.5625 -9.3125,0 0,-17.4375 q 0,-4.5 -1.1875,-6.375 -1.1875,-1.875 -4.4375,-1.875 -1,0 -2.125,0.125 -1.125,0.0625 -2,0.1875 l 0,25.375 -9.3125,0 0,-31.75 z" />
      <path
         inkscape:connector-curvature="0"
         id="path4219"
         style="font-style:normal;font-variant:normal;font-weight:bold;font-stretch:normal;font-size:medium;line-height:125%;font-family:Monospace;-inkscape-font-specification:Monospace;letter-spacing:0px;word-spacing:0px;fill:#000000;fill-opacity:1;stroke:none;stroke-width:1px;stroke-linecap:butt;stroke-linejoin:miter;stroke-opacity:1"
         d="m 383.61719,146.14792 q 1.375,0 2.625,-0.0625 1.25,-0.0625 2,-0.1875 l 0,-7.0625 q -0.5625,-0.125 -1.6875,-0.25 -1.125,-0.125 -2.0625,-0.125 -1.3125,0 -2.5,0.1875 -1.125,0.125 -2,0.5625 -0.875,0.4375 -1.375,1.1875 -0.5,0.75 -0.5,1.875 0,2.1875 1.4375,3.0625 1.5,0.8125 4.0625,0.8125 z m -0.75,-27.25 q 4.125,0 6.875,0.9375 2.75,0.9375 4.375,2.6875 1.6875,1.75 2.375,4.25 0.6875,2.5 0.6875,5.5625 l 0,19.375 q -2,0.4375 -5.5625,1 -3.5625,0.625 -8.625,0.625 -3.1875,0 -5.8125,-0.5625 -2.5625,-0.5625 -4.4375,-1.8125 -1.875,-1.3125 -2.875,-3.375 -1,-2.0625 -1,-5.0625 0,-2.875 1.125,-4.875 1.1875,-2 3.125,-3.1875 1.9375,-1.1875 4.4375,-1.6875 2.5,-0.5625 5.1875,-0.5625 1.8125,0 3.1875,0.1875 1.4375,0.125 2.3125,0.375 l 0,-0.875 q 0,-2.375 -1.4375,-3.8125 -1.4375,-1.4375 -5,-1.4375 -2.375,0 -4.6875,0.375 -2.3125,0.3125 -4,0.9375 l -1.1875,-7.5 q 0.8125,-0.25 2,-0.5 1.25,-0.3125 2.6875,-0.5 1.4375,-0.25 3,-0.375 1.625,-0.1875 3.25,-0.1875 z" />
      <path
         inkscape:connector-curvature="0"
         id="path4221"
         style="font-style:normal;font-variant:normal;font-weight:bold;font-stretch:normal;font-size:medium;line-height:125%;font-family:Monospace;-inkscape-font-specification:Monospace;letter-spacing:0px;word-spacing:0px;fill:#000000;fill-opacity:1;stroke:none;stroke-width:1px;stroke-linecap:butt;stroke-linejoin:miter;stroke-opacity:1"
         d="m 405.60059,120.89792 q 2.375,-0.6875 6.125,-1.25 3.75,-0.625 7.875,-0.625 4.1875,0 6.9375,1.125 2.8125,1.0625 4.4375,3.0625 1.625,2 2.3125,4.75 0.6875,2.75 0.6875,6.125 l 0,18.5625 -9.3125,0 0,-17.4375 q 0,-4.5 -1.1875,-6.375 -1.1875,-1.875 -4.4375,-1.875 -1,0 -2.125,0.125 -1.125,0.0625 -2,0.1875 l 0,25.375 -9.3125,0 0,-31.75 z" />
    </g>
  </g>
</svg>
